<svg id="Circe_Pie" data-name="Circe Pie" xmlns="http://www.w3.org/2000/svg" xmlns:xlink="http://www.w3.org/1999/xlink" width="430.029" height="428.605" viewBox="0 0 430.029 428.605">
  <defs>
    <filter id="Ellipse_42" x="110.26" y="123.067" width="210" height="210" filterUnits="userSpaceOnUse">
      <feOffset dy="13" input="SourceAlpha"/>
      <feGaussianBlur stdDeviation="8" result="blur"/>
      <feFlood flood-opacity="0.161"/>
      <feComposite operator="in" in2="blur"/>
      <feComposite in="SourceGraphic"/>
    </filter>
    <clipPath id="clip-path">
      <rect id="Rectangle_981" data-name="Rectangle 981" width="128.712" height="135.44" fill="#303a52"/>
    </clipPath>
  </defs>
  <text id="_10_" data-name="10%" transform="translate(98.26 361.067)" fill="#fff" font-size="16" font-family="OpenSans-Bold, Open Sans" font-weight="700" opacity="0"><tspan x="0" y="0">10%</tspan></text>
  <text id="Founders" transform="translate(88.26 378.067)" fill="#fff" font-size="12" font-family="OpenSans-Bold, Open Sans" font-weight="700" opacity="0"><tspan x="0" y="0">Founders</tspan></text>
  <text id="Service_Legal" data-name="Service
Legal" transform="translate(60.26 356.067)" fill="#fff" font-size="12" font-family="OpenSans-Bold, Open Sans" font-weight="700" opacity="0"><tspan x="0" y="0">Service</tspan><tspan x="0" y="13">Legal</tspan></text>
  <text id="_5_" data-name="5%" transform="translate(162.26 359.067)" fill="#fff" font-size="16" font-family="OpenSans-Bold, Open Sans" font-weight="700" opacity="0.001"><tspan x="0" y="0">5%</tspan></text>
  <text id="Crypto_Strategic" data-name="Crypto
Strategic" transform="translate(172.26 376.067)" fill="#fff" font-size="12" font-family="OpenSans-Bold, Open Sans" font-weight="700" opacity="0.001"><tspan x="-20" y="0">Crypto</tspan><tspan x="-26" y="13">Strategic</tspan></text>
  <text id="Advisors" transform="translate(244.26 359.067)" fill="#fff" font-size="12" font-family="OpenSans-Bold, Open Sans" font-weight="700" opacity="0"><tspan x="0" y="0">Advisors</tspan></text>
  <path id="Orange" d="M215.528,214.769,129.3,411.592a228.331,228.331,0,0,1-29.2-14.985,215.852,215.852,0,0,1-25.671-18.97Z" transform="translate(-0.268 -0.933)" fill="#f19065"/>
  <path id="Tracé_29086" data-name="Tracé 29086" d="M214.8,214.837,106.914,29.037A218.385,218.385,0,0,1,214.8,0h.341Z" transform="translate(0.458)" fill="#f5cd7a"/>
  <path id="Blue" d="M216.261,215.9.316,227.592Q0,221.754,0,215.9A216.375,216.375,0,0,1,76.108,51.2Z" transform="translate(0 -0.149)" fill="#556ee6"/>
  <path id="Cian" d="M214.327,214.769,47.9,349.814A214.334,214.334,0,0,1,.317,226.417Z" transform="translate(0.934 0.067)" fill="#3ec1d3"/>
  <path id="Clean_Orange" data-name="Clean Orange" d="M214.843,214.769,74.525,377.488q-7.293-6.289-14-13.214T47.759,349.86Z" transform="translate(0.418 0.067)" fill="#f5cd7a"/>
  <path id="Warm_Red" data-name="Warm Red" d="M214.769,214.769,199.245,428.976a214.739,214.739,0,0,1-36.031-5.717,223.331,223.331,0,0,1-35.234-11.937Z" transform="translate(0.491 -0.933)" fill="#e26042"/>
  <path id="Dark_Grey" data-name="Dark Grey" d="M214.72,214.7,75.6,51.18q7.32-6.227,15.176-11.782T106.947,29.02Z" transform="translate(0.54 0.132)" fill="#303a52"/>
  <path id="Pirple" d="M214.769,214.769,215.212,0C332.863.243,429.538,97.118,429.538,214.769a214.82,214.82,0,0,1-52.561,140.763Z" transform="translate(0.491 0.067)" fill="#574b90"/>
  <path id="Bordeau" d="M214.769,214.769,377.012,355.493a214.876,214.876,0,0,1-162.243,74.045q-7.976,0-15.936-.592Z" transform="translate(0.491 -0.933)" fill="#c34568"/>
  <g transform="matrix(1, 0, 0, 1, 0, 0)" filter="url(#Ellipse_42)">
    <circle id="Ellipse_42-2" data-name="Ellipse 42" cx="81" cy="81" r="81" transform="translate(134.26 134.07)" fill="#fff"/>
  </g>
  <g id="Groupe_397" data-name="Groupe 397" transform="translate(150.833 146.919)" clip-path="url(#clip-path)">
    <path id="Tracé_29087" data-name="Tracé 29087" d="M64.357,2.546a65.273,65.273,0,0,1,61.668,44.135h2.687A67.7,67.7,0,0,0,0,46.681H2.687A65.275,65.275,0,0,1,64.357,2.546" fill="#73c829"/>
    <path id="Tracé_29088" data-name="Tracé 29088" d="M126.025,104.577a65.152,65.152,0,0,1-123.338,0H0a67.7,67.7,0,0,0,128.712,0Z" transform="translate(0 -15.818)" fill="#73c829"/>
    <path id="Tracé_29089" data-name="Tracé 29089" d="M66.28,12.4a57.43,57.43,0,1,0,56.739,58.122A57.428,57.428,0,0,0,66.28,12.4M64.939,123.534A53.712,53.712,0,1,1,119.293,70.47a53.711,53.711,0,0,1-54.354,53.063" transform="translate(-1.233 -1.875)" fill="#303a52"/>
    <path id="Tracé_29090" data-name="Tracé 29090" d="M18.348,70.345l-.184-.031q-.1.573-.18,1.149l.185.026q.083-.574.179-1.145" transform="translate(-2.72 -10.635)" fill="#303a52"/>
    <path id="Tracé_29091" data-name="Tracé 29091" d="M17.968,73.049l-.186-.022q-.069.577-.125,1.156l.186.018c.036-.385.079-.769.125-1.152" transform="translate(-2.671 -11.046)" fill="#303a52"/>
    <path id="Tracé_29092" data-name="Tracé 29092" d="M18.858,67.663l-.182-.04q-.123.568-.234,1.139l.183.036q.111-.569.233-1.135" transform="translate(-2.789 -10.228)" fill="#303a52"/>
    <path id="Tracé_29093" data-name="Tracé 29093" d="M22.144,57.247l-.171-.073q-.229.536-.446,1.078l.173.07c.144-.361.292-.718.444-1.075" transform="translate(-3.256 -8.648)" fill="#303a52"/>
    <path id="Tracé_29094" data-name="Tracé 29094" d="M17.715,75.767l-.187-.014c-.028.385-.052.773-.071,1.161l.187.009q.029-.581.071-1.157" transform="translate(-2.64 -11.458)" fill="#303a52"/>
    <path id="Tracé_29095" data-name="Tracé 29095" d="M30.574,43.254l-.145-.118q-.368.451-.726.91l.148.115q.356-.457.723-.906" transform="translate(-4.493 -6.525)" fill="#303a52"/>
    <path id="Tracé_29096" data-name="Tracé 29096" d="M17.589,78.5,17.4,78.49q-.014.579-.017,1.163h.187q0-.582.018-1.159" transform="translate(-2.629 -11.872)" fill="#303a52"/>
    <path id="Tracé_29097" data-name="Tracé 29097" d="M23.271,54.754l-.168-.081q-.255.525-.5,1.055l.17.077q.241-.528.494-1.051" transform="translate(-3.419 -8.27)" fill="#303a52"/>
    <path id="Tracé_29098" data-name="Tracé 29098" d="M34.21,39.189l-.132-.131q-.41.414-.807.838l.136.127q.4-.421.8-.834" transform="translate(-5.032 -5.908)" fill="#303a52"/>
    <path id="Tracé_29099" data-name="Tracé 29099" d="M36.165,37.289l-.126-.137q-.428.395-.845.8l.131.134q.415-.4.841-.8" transform="translate(-5.323 -5.619)" fill="#303a52"/>
    <path id="Tracé_29100" data-name="Tracé 29100" d="M32.345,41.179l-.139-.124q-.388.432-.766.873l.142.122q.377-.44.764-.872" transform="translate(-4.755 -6.21)" fill="#303a52"/>
    <path id="Tracé_29101" data-name="Tracé 29101" d="M28.9,45.41l-.15-.111q-.346.467-.682.943l.152.107q.335-.472.681-.939" transform="translate(-4.246 -6.852)" fill="#303a52"/>
    <path id="Tracé_29102" data-name="Tracé 29102" d="M24.513,52.321l-.164-.089q-.279.511-.544,1.03l.166.086q.266-.517.542-1.026" transform="translate(-3.601 -7.9)" fill="#303a52"/>
    <path id="Tracé_29103" data-name="Tracé 29103" d="M25.867,49.949l-.16-.1q-.3.5-.592,1l.161.093q.289-.5.591-1" transform="translate(-3.799 -7.54)" fill="#303a52"/>
    <path id="Tracé_29104" data-name="Tracé 29104" d="M27.332,47.643l-.155-.1q-.325.484-.638.974l.158.1q.312-.489.636-.97" transform="translate(-4.014 -7.191)" fill="#303a52"/>
    <path id="Tracé_29105" data-name="Tracé 29105" d="M18.131,89.4q.093.575.2,1.146l.183-.034q-.106-.568-.2-1.142Z" transform="translate(-2.742 -13.518)" fill="#303a52"/>
    <path id="Tracé_29106" data-name="Tracé 29106" d="M23,105.031q.248.525.51,1.041l.166-.084q-.26-.516-.508-1.038Z" transform="translate(-3.479 -15.874)" fill="#303a52"/>
    <path id="Tracé_29107" data-name="Tracé 29107" d="M25.572,109.85q.3.5.605.99l.159-.1q-.307-.489-.6-.986Z" transform="translate(-3.868 -16.601)" fill="#303a52"/>
    <path id="Tracé_29108" data-name="Tracé 29108" d="M24.229,107.47q.274.512.558,1.018l.162-.093q-.284-.5-.556-1.013Z" transform="translate(-3.665 -16.242)" fill="#303a52"/>
    <path id="Tracé_29109" data-name="Tracé 29109" d="M21.885,102.537c.149.357.3.711.46,1.064l.171-.076q-.236-.527-.458-1.06Z" transform="translate(-3.31 -15.498)" fill="#303a52"/>
    <path id="Tracé_29110" data-name="Tracé 29110" d="M30.251,116.584q.364.453.738.9l.143-.12q-.373-.443-.735-.895Z" transform="translate(-4.576 -17.616)" fill="#303a52"/>
    <path id="Tracé_29111" data-name="Tracé 29111" d="M27.026,112.166q.32.485.652.962l.153-.107q-.33-.475-.648-.957Z" transform="translate(-4.088 -16.95)" fill="#303a52"/>
    <path id="Tracé_29112" data-name="Tracé 29112" d="M20.889,99.992q.2.547.411,1.088l.174-.068q-.211-.539-.409-1.084Z" transform="translate(-3.16 -15.115)" fill="#303a52"/>
    <path id="Tracé_29113" data-name="Tracé 29113" d="M109.31,32.205q-.474-.336-.957-.661l-.1.154c.321.216.64.436.954.659Z" transform="translate(-16.373 -4.771)" fill="#303a52"/>
    <path id="Tracé_29114" data-name="Tracé 29114" d="M19.31,64.96q-.15.56-.287,1.127l.181.043q.137-.563.287-1.122Z" transform="translate(-2.877 -9.826)" fill="#303a52"/>
    <path id="Tracé_29115" data-name="Tracé 29115" d="M18.632,92.1q.12.57.253,1.136l.182-.043q-.132-.563-.252-1.131Z" transform="translate(-2.818 -13.924)" fill="#303a52"/>
    <path id="Tracé_29116" data-name="Tracé 29116" d="M17.945,86.671l-.187.02q.066.579.146,1.154l.183-.025q-.079-.573-.143-1.149" transform="translate(-2.686 -13.109)" fill="#303a52"/>
    <path id="Tracé_29117" data-name="Tracé 29117" d="M17.7,83.951l-.187.013q.039.581.091,1.159l.186-.016q-.051-.575-.09-1.155" transform="translate(-2.649 -12.698)" fill="#303a52"/>
    <path id="Tracé_29118" data-name="Tracé 29118" d="M17.582,81.226l-.187,0q.013.581.036,1.16l.187-.008c-.017-.384-.029-.769-.036-1.156" transform="translate(-2.631 -12.286)" fill="#303a52"/>
    <path id="Tracé_29119" data-name="Tracé 29119" d="M19.26,94.764q.146.563.306,1.122l.18-.052q-.159-.555-.3-1.118Z" transform="translate(-2.913 -14.326)" fill="#303a52"/>
    <path id="Tracé_29120" data-name="Tracé 29120" d="M20.012,97.4q.173.556.359,1.107l.177-.06q-.185-.547-.357-1.1Z" transform="translate(-3.027 -14.723)" fill="#303a52"/>
    <path id="Tracé_29121" data-name="Tracé 29121" d="M20.073,62.325q-.177.556-.341,1.117l.179.052q.164-.559.34-1.112Z" transform="translate(-2.985 -9.427)" fill="#303a52"/>
    <path id="Tracé_29122" data-name="Tracé 29122" d="M20.962,59.726q-.2.546-.394,1.1l.177.061q.19-.55.392-1.094Z" transform="translate(-3.111 -9.034)" fill="#303a52"/>
    <path id="Tracé_29123" data-name="Tracé 29123" d="M28.586,114.412q.342.47.7.93l.149-.114q-.353-.458-.693-.927Z" transform="translate(-4.324 -17.289)" fill="#303a52"/>
    <path id="Tracé_29124" data-name="Tracé 29124" d="M115.687,37.387q-.423-.4-.856-.788l-.124.139q.43.387.853.784Z" transform="translate(-17.35 -5.536)" fill="#303a52"/>
    <path id="Tracé_29125" data-name="Tracé 29125" d="M117.643,39.3q-.406-.418-.819-.826l-.131.132q.411.407.816.823Z" transform="translate(-17.65 -5.82)" fill="#303a52"/>
    <path id="Tracé_29126" data-name="Tracé 29126" d="M89.416,23.218q-.564-.136-1.134-.261l-.04.182q.568.123,1.129.261Z" transform="translate(-13.347 -3.472)" fill="#303a52"/>
    <path id="Tracé_29127" data-name="Tracé 29127" d="M113.642,35.561q-.441-.378-.892-.747l-.117.144q.448.367.888.744Z" transform="translate(-17.036 -5.266)" fill="#303a52"/>
    <path id="Tracé_29128" data-name="Tracé 29128" d="M119.509,41.31q-.384-.435-.779-.863l-.138.126q.393.426.776.861Z" transform="translate(-17.938 -6.118)" fill="#303a52"/>
    <path id="Tracé_29129" data-name="Tracé 29129" d="M86.736,22.645q-.569-.111-1.144-.208l-.031.184q.572.1,1.141.207Z" transform="translate(-12.941 -3.394)" fill="#303a52"/>
    <path id="Tracé_29130" data-name="Tracé 29130" d="M84.035,22.2q-.574-.083-1.153-.154l-.023.186q.577.069,1.149.153Z" transform="translate(-12.533 -3.334)" fill="#303a52"/>
    <path id="Tracé_29131" data-name="Tracé 29131" d="M81.314,21.877c-.385-.036-.772-.07-1.159-.1l-.014.187q.579.043,1.155.1Z" transform="translate(-12.122 -3.294)" fill="#303a52"/>
    <path id="Tracé_29132" data-name="Tracé 29132" d="M111.515,33.832c-.3-.238-.614-.474-.926-.705l-.111.15q.466.346.923.7Z" transform="translate(-16.71 -5.011)" fill="#303a52"/>
    <path id="Tracé_29133" data-name="Tracé 29133" d="M104.682,29.266q-.5-.29-1.016-.569l-.09.164q.511.278,1.013.566Z" transform="translate(-15.666 -4.341)" fill="#303a52"/>
    <path id="Tracé_29134" data-name="Tracé 29134" d="M102.268,27.961q-.518-.266-1.043-.521l-.081.169c.348.168.693.342,1.037.518Z" transform="translate(-15.299 -4.15)" fill="#303a52"/>
    <path id="Tracé_29135" data-name="Tracé 29135" d="M92.072,23.922q-.559-.164-1.124-.316l-.048.181q.563.15,1.12.314Z" transform="translate(-13.749 -3.571)" fill="#303a52"/>
    <path id="Tracé_29136" data-name="Tracé 29136" d="M40.328,33.775l-.114-.149q-.462.353-.914.716l.116.146q.452-.362.912-.714" transform="translate(-5.944 -5.086)" fill="#303a52"/>
    <path id="Tracé_29137" data-name="Tracé 29137" d="M94.691,24.75c-.368-.126-.736-.25-1.108-.369l-.056.178q.554.178,1.1.368Z" transform="translate(-14.146 -3.688)" fill="#303a52"/>
    <path id="Tracé_29138" data-name="Tracé 29138" d="M97.268,25.7q-.541-.216-1.088-.42l-.065.175q.544.2,1.083.418Z" transform="translate(-14.538 -3.824)" fill="#303a52"/>
    <path id="Tracé_29139" data-name="Tracé 29139" d="M99.795,26.773q-.53-.242-1.067-.471l-.073.171q.535.228,1.062.469Z" transform="translate(-14.922 -3.978)" fill="#303a52"/>
    <path id="Tracé_29140" data-name="Tracé 29140" d="M107.031,30.681q-.49-.314-.989-.616l-.1.16q.5.3.984.614Z" transform="translate(-16.025 -4.548)" fill="#303a52"/>
    <path id="Tracé_29141" data-name="Tracé 29141" d="M54.5,25.773l-.068-.174q-.54.211-1.075.435l.072.172q.532-.223,1.07-.433" transform="translate(-8.071 -3.872)" fill="#303a52"/>
    <path id="Tracé_29142" data-name="Tracé 29142" d="M49.536,27.989l-.084-.166q-.518.26-1.03.533l.087.165q.509-.271,1.026-.531" transform="translate(-7.324 -4.208)" fill="#303a52"/>
    <path id="Tracé_29143" data-name="Tracé 29143" d="M51.993,26.822l-.076-.171q-.53.236-1.053.485l.081.168q.521-.247,1.049-.482" transform="translate(-7.693 -4.031)" fill="#303a52"/>
    <path id="Tracé_29144" data-name="Tracé 29144" d="M59.669,24.027l-.052-.18q-.559.16-1.114.333l.056.178c.368-.115.738-.225,1.11-.331" transform="translate(-8.849 -3.607)" fill="#303a52"/>
    <path id="Tracé_29145" data-name="Tracé 29145" d="M57.064,24.838,57,24.661q-.553.187-1.1.385l.064.176q.545-.2,1.094-.384" transform="translate(-8.456 -3.73)" fill="#303a52"/>
    <path id="Tracé_29146" data-name="Tracé 29146" d="M47.136,29.271l-.093-.162q-.505.285-1,.581l.1.16q.5-.3,1-.58" transform="translate(-6.964 -4.403)" fill="#303a52"/>
    <path id="Tracé_29147" data-name="Tracé 29147" d="M42.526,32.168l-.106-.154q-.477.331-.947.673l.11.151q.467-.341.943-.671" transform="translate(-6.273 -4.842)" fill="#303a52"/>
    <path id="Tracé_29148" data-name="Tracé 29148" d="M44.8,30.666l-.1-.159q-.491.309-.977.628l.1.156q.483-.318.973-.626" transform="translate(-6.613 -4.614)" fill="#303a52"/>
    <path id="Tracé_29149" data-name="Tracé 29149" d="M78.582,21.686q-.579-.029-1.162-.045l-.005.187q.581.015,1.158.045Z" transform="translate(-11.709 -3.273)" fill="#303a52"/>
    <path id="Tracé_29150" data-name="Tracé 29150" d="M73.115,21.859l-.008-.187q-.582.025-1.161.063l.012.187q.577-.038,1.158-.063" transform="translate(-10.882 -3.278)" fill="#303a52"/>
    <path id="Tracé_29151" data-name="Tracé 29151" d="M70.39,22.039l-.017-.186q-.581.052-1.157.117l.021.186c.383-.044.767-.082,1.153-.117" transform="translate(-10.469 -3.305)" fill="#303a52"/>
    <path id="Tracé_29152" data-name="Tracé 29152" d="M75.651,21.807h.192v-.186h-.193c-.324,0-.648,0-.971.01l0,.186q.483-.009.968-.009" transform="translate(-11.296 -3.27)" fill="#303a52"/>
    <path id="Tracé_29153" data-name="Tracé 29153" d="M32.016,118.678q.384.435.779.862l.137-.126q-.393-.425-.777-.86Z" transform="translate(-4.843 -17.932)" fill="#303a52"/>
    <path id="Tracé_29154" data-name="Tracé 29154" d="M64.982,22.78l-.034-.183q-.573.107-1.141.226l.038.182q.565-.118,1.136-.225" transform="translate(-9.651 -3.418)" fill="#303a52"/>
    <path id="Tracé_29155" data-name="Tracé 29155" d="M67.677,22.346l-.025-.185c-.384.053-.769.109-1.151.171l.03.184q.572-.092,1.146-.171" transform="translate(-10.059 -3.352)" fill="#303a52"/>
    <path id="Tracé_29156" data-name="Tracé 29156" d="M62.31,23.341l-.043-.182q-.567.134-1.129.279l.048.181q.559-.146,1.125-.278" transform="translate(-9.247 -3.503)" fill="#303a52"/>
    <path id="Tracé_29157" data-name="Tracé 29157" d="M38.206,35.483l-.121-.143q-.444.374-.88.759l.123.14q.435-.383.878-.756" transform="translate(-5.627 -5.345)" fill="#303a52"/>
    <path id="Tracé_29158" data-name="Tracé 29158" d="M124.2,112.243l.156.1q.322-.483.637-.974l-.158-.1q-.312.49-.635.971" transform="translate(-18.787 -16.831)" fill="#303a52"/>
    <path id="Tracé_29159" data-name="Tracé 29159" d="M132.317,65.2q-.146-.563-.3-1.12l-.179.051q.157.555.3,1.117Z" transform="translate(-19.94 -9.692)" fill="#303a52"/>
    <path id="Tracé_29160" data-name="Tracé 29160" d="M122.628,114.481l.151.111c.23-.312.458-.626.681-.943l-.152-.108q-.335.474-.68.94" transform="translate(-18.548 -17.174)" fill="#303a52"/>
    <path id="Tracé_29161" data-name="Tracé 29161" d="M106.7,129.288l.1.159q.493-.309.977-.63l-.1-.155q-.481.318-.973.626" transform="translate(-16.139 -19.461)" fill="#303a52"/>
    <path id="Tracé_29162" data-name="Tracé 29162" d="M120.951,116.642l.144.119q.369-.451.726-.911l-.147-.115q-.356.46-.723.906" transform="translate(-18.295 -17.506)" fill="#303a52"/>
    <path id="Tracé_29163" data-name="Tracé 29163" d="M127.035,107.557l.164.088q.278-.511.543-1.03l-.165-.086q-.265.517-.541,1.027" transform="translate(-19.215 -16.113)" fill="#303a52"/>
    <path id="Tracé_29164" data-name="Tracé 29164" d="M128.281,105.118l.167.081q.253-.525.5-1.055l-.171-.077c-.16.352-.325.7-.492,1.051" transform="translate(-19.403 -15.741)" fill="#303a52"/>
    <path id="Tracé_29165" data-name="Tracé 29165" d="M119.177,118.726l.139.124q.387-.432.766-.874l-.143-.122q-.376.441-.763.873" transform="translate(-18.026 -17.826)" fill="#303a52"/>
    <path id="Tracé_29166" data-name="Tracé 29166" d="M130.426,100.078l.176.065c.134-.364.266-.73.392-1.1l-.176-.062c-.127.368-.258.732-.392,1.095" transform="translate(-19.728 -14.972)" fill="#303a52"/>
    <path id="Tracé_29167" data-name="Tracé 29167" d="M113.3,124.444l.121.143q.443-.374.88-.76l-.125-.14c-.289.255-.581.508-.877.757" transform="translate(-17.138 -18.708)" fill="#303a52"/>
    <path id="Tracé_29168" data-name="Tracé 29168" d="M108.975,127.777l.106.154q.477-.332.946-.675l-.11-.151q-.468.342-.942.672" transform="translate(-16.483 -19.225)" fill="#303a52"/>
    <path id="Tracé_29169" data-name="Tracé 29169" d="M111.178,126.161l.115.149q.46-.354.913-.718l-.118-.145q-.449.362-.91.715" transform="translate(-16.816 -18.974)" fill="#303a52"/>
    <path id="Tracé_29170" data-name="Tracé 29170" d="M115.349,122.63l.127.137q.425-.395.844-.8l-.13-.134q-.416.4-.841.8" transform="translate(-17.447 -18.428)" fill="#303a52"/>
    <path id="Tracé_29171" data-name="Tracé 29171" d="M117.308,120.722l.132.131q.409-.414.806-.839l-.136-.127q-.4.423-.8.835" transform="translate(-17.743 -18.134)" fill="#303a52"/>
    <path id="Tracé_29172" data-name="Tracé 29172" d="M129.413,102.624l.172.074q.229-.536.445-1.079l-.175-.069q-.213.54-.442,1.074" transform="translate(-19.574 -15.36)" fill="#303a52"/>
    <path id="Tracé_29173" data-name="Tracé 29173" d="M130.677,59.983q-.2-.546-.408-1.086l-.175.068c.141.358.276.719.407,1.081Z" transform="translate(-19.677 -8.909)" fill="#303a52"/>
    <path id="Tracé_29174" data-name="Tracé 29174" d="M131.318,97.487l.177.056c.119-.37.232-.742.341-1.116l-.179-.052q-.164.558-.34,1.112" transform="translate(-19.863 -14.577)" fill="#303a52"/>
    <path id="Tracé_29175" data-name="Tracé 29175" d="M128.557,54.947q-.25-.525-.509-1.043l-.167.084q.26.517.508,1.04Z" transform="translate(-19.343 -8.153)" fill="#303a52"/>
    <path id="Tracé_29176" data-name="Tracé 29176" d="M129.678,57.44q-.224-.536-.459-1.065l-.171.076c.156.352.308.705.457,1.062Z" transform="translate(-19.519 -8.527)" fill="#303a52"/>
    <path id="Tracé_29177" data-name="Tracé 29177" d="M131.56,62.572q-.173-.556-.358-1.108l-.177.06q.186.547.356,1.1Z" transform="translate(-19.818 -9.297)" fill="#303a52"/>
    <rect id="Rectangle_980" data-name="Rectangle 980" width="0.187" height="0.244" transform="matrix(0.974, -0.226, 0.226, 0.974, 112.472, 56.678)" fill="#303a52"/>
    <path id="Tracé_29178" data-name="Tracé 29178" d="M33.876,120.687q.4.418.819.825l.132-.132q-.414-.406-.816-.822Z" transform="translate(-5.124 -18.235)" fill="#303a52"/>
    <path id="Tracé_29179" data-name="Tracé 29179" d="M127.321,52.507q-.272-.512-.557-1.018l-.163.092q.283.5.556,1.015Z" transform="translate(-19.149 -7.788)" fill="#303a52"/>
    <path id="Tracé_29180" data-name="Tracé 29180" d="M120.4,42.622q.372.443.735.895l.146-.116q-.365-.455-.738-.9Z" transform="translate(-18.211 -6.429)" fill="#303a52"/>
    <path id="Tracé_29181" data-name="Tracé 29181" d="M132.087,94.855l.181.048q.15-.564.287-1.131l-.182-.044q-.136.565-.286,1.127" transform="translate(-19.979 -14.177)" fill="#303a52"/>
    <path id="Tracé_29182" data-name="Tracé 29182" d="M122.947,45.569q-.342-.47-.694-.931l-.149.114q.351.458.693.928Z" transform="translate(-18.469 -6.752)" fill="#303a52"/>
    <path id="Tracé_29183" data-name="Tracé 29183" d="M124.513,47.814q-.32-.485-.651-.962l-.154.107c.221.317.435.637.648.958Z" transform="translate(-18.712 -7.087)" fill="#303a52"/>
    <path id="Tracé_29184" data-name="Tracé 29184" d="M125.973,50.128q-.3-.5-.605-.991l-.159.1q.307.489.6.988Z" transform="translate(-18.939 -7.432)" fill="#303a52"/>
    <path id="Tracé_29185" data-name="Tracé 29185" d="M125.673,109.933l.159.1c.2-.332.4-.666.592-1l-.163-.093q-.288.5-.588,1" transform="translate(-19.009 -16.477)" fill="#303a52"/>
    <path id="Tracé_29186" data-name="Tracé 29186" d="M54.233,134.335q.541.216,1.089.419l.065-.176q-.545-.2-1.084-.418Z" transform="translate(-8.203 -20.293)" fill="#303a52"/>
    <path id="Tracé_29187" data-name="Tracé 29187" d="M51.706,133.257q.528.242,1.067.472l.073-.172q-.536-.228-1.062-.469Z" transform="translate(-7.821 -20.13)" fill="#303a52"/>
    <path id="Tracé_29188" data-name="Tracé 29188" d="M56.81,135.293c.368.126.737.249,1.108.367l.057-.177c-.37-.118-.738-.241-1.1-.367Z" transform="translate(-8.593 -20.437)" fill="#303a52"/>
    <path id="Tracé_29189" data-name="Tracé 29189" d="M59.431,136.127q.556.163,1.119.314l.048-.181q-.56-.15-1.115-.312Z" transform="translate(-8.989 -20.563)" fill="#303a52"/>
    <path id="Tracé_29190" data-name="Tracé 29190" d="M64.756,137.415q.57.109,1.144.206l.031-.184q-.572-.1-1.14-.206Z" transform="translate(-9.795 -20.757)" fill="#303a52"/>
    <path id="Tracé_29191" data-name="Tracé 29191" d="M49.233,132.062q.518.266,1.043.519l.081-.167q-.522-.253-1.039-.519Z" transform="translate(-7.447 -19.95)" fill="#303a52"/>
    <path id="Tracé_29192" data-name="Tracé 29192" d="M62.078,136.834c.36.088.731.174,1.134.261l.04-.182c-.4-.087-.771-.171-1.129-.26Z" transform="translate(-9.39 -20.67)" fill="#303a52"/>
    <path id="Tracé_29193" data-name="Tracé 29193" d="M46.82,130.753q.5.29,1.017.568l.09-.164q-.511-.278-1.014-.565Z" transform="translate(-7.082 -19.753)" fill="#303a52"/>
    <path id="Tracé_29194" data-name="Tracé 29194" d="M67.458,137.87q.574.081,1.153.152l.023-.186q-.577-.07-1.149-.152Z" transform="translate(-10.203 -20.825)" fill="#303a52"/>
    <path id="Tracé_29195" data-name="Tracé 29195" d="M39.993,126.171q.458.358.927.7l.111-.15q-.466-.346-.923-.7Z" transform="translate(-6.049 -19.062)" fill="#303a52"/>
    <path id="Tracé_29196" data-name="Tracé 29196" d="M35.829,122.608q.424.4.857.787l.125-.139q-.432-.387-.855-.783Z" transform="translate(-5.419 -18.525)" fill="#303a52"/>
    <path id="Tracé_29197" data-name="Tracé 29197" d="M37.869,124.437q.442.378.893.747l.118-.145q-.449-.367-.889-.743Z" transform="translate(-5.728 -18.8)" fill="#303a52"/>
    <path id="Tracé_29198" data-name="Tracé 29198" d="M44.473,129.332q.491.313.99.615l.1-.16q-.5-.3-.986-.613Z" transform="translate(-6.727 -19.538)" fill="#303a52"/>
    <path id="Tracé_29199" data-name="Tracé 29199" d="M42.195,127.8q.476.336.959.66l.1-.154q-.481-.323-.956-.659Z" transform="translate(-6.382 -19.308)" fill="#303a52"/>
    <path id="Tracé_29200" data-name="Tracé 29200" d="M99.493,133.163l.076.171q.531-.237,1.053-.485l-.08-.169q-.522.248-1.05.484" transform="translate(-15.049 -20.068)" fill="#303a52"/>
    <path id="Tracé_29201" data-name="Tracé 29201" d="M91.823,135.987l.052.179q.56-.16,1.114-.334l-.056-.179q-.553.173-1.11.334" transform="translate(-13.889 -20.518)" fill="#303a52"/>
    <path id="Tracé_29202" data-name="Tracé 29202" d="M86.511,137.256l.033.184c.382-.07.762-.147,1.142-.227l-.038-.182q-.565.12-1.136.225" transform="translate(-13.085 -20.727)" fill="#303a52"/>
    <path id="Tracé_29203" data-name="Tracé 29203" d="M94.426,135.165l.059.177q.55-.187,1.094-.384l-.065-.176q-.542.2-1.089.383" transform="translate(-14.282 -20.387)" fill="#303a52"/>
    <path id="Tracé_29204" data-name="Tracé 29204" d="M89.182,136.684l.043.182c.378-.091.754-.183,1.129-.281l-.048-.181q-.559.146-1.124.279" transform="translate(-13.489 -20.632)" fill="#303a52"/>
    <path id="Tracé_29205" data-name="Tracé 29205" d="M101.953,131.985l.085.167q.518-.262,1.03-.536l-.087-.165c-.339.182-.683.36-1.027.533" transform="translate(-15.421 -19.883)" fill="#303a52"/>
    <path id="Tracé_29206" data-name="Tracé 29206" d="M104.357,130.694l.091.162q.508-.285,1.006-.583l-.1-.16q-.5.3-1,.581" transform="translate(-15.785 -19.68)" fill="#303a52"/>
    <path id="Tracé_29207" data-name="Tracé 29207" d="M96.981,134.224l.068.174c.361-.14.72-.286,1.076-.435l-.073-.172q-.532.224-1.071.434" transform="translate(-14.669 -20.236)" fill="#303a52"/>
    <path id="Tracé_29208" data-name="Tracé 29208" d="M83.816,137.7l.025.186q.577-.082,1.15-.172l-.03-.184q-.57.092-1.146.171" transform="translate(-12.678 -20.802)" fill="#303a52"/>
    <path id="Tracé_29209" data-name="Tracé 29209" d="M75.8,138.277h-.146v.188H75.8q.509,0,1.016-.011l0-.188q-.505.01-1.013.011" transform="translate(-11.443 -20.914)" fill="#303a52"/>
    <path id="Tracé_29210" data-name="Tracé 29210" d="M72.912,138.394q.579.029,1.162.045l.005-.188q-.581-.015-1.158-.044Z" transform="translate(-11.028 -20.905)" fill="#303a52"/>
    <path id="Tracé_29211" data-name="Tracé 29211" d="M78.379,138.212l.008.188q.582-.027,1.161-.064l-.013-.186q-.575.038-1.157.063" transform="translate(-11.855 -20.896)" fill="#303a52"/>
    <path id="Tracé_29212" data-name="Tracé 29212" d="M70.179,138.2q.578.056,1.159.1l.013-.186q-.578-.042-1.154-.1Z" transform="translate(-10.615 -20.875)" fill="#303a52"/>
    <path id="Tracé_29213" data-name="Tracé 29213" d="M81.1,138.022l.017.186q.581-.052,1.157-.118l-.021-.186q-.574.066-1.153.118" transform="translate(-12.267 -20.859)" fill="#303a52"/>
    <path id="Tracé_29214" data-name="Tracé 29214" d="M107.666,50.223a46.323,46.323,0,0,0-2.578-4.256,1.181,1.181,0,0,0-1.522-.371c-.5-.686-1.016-1.352-1.549-2.006a1.182,1.182,0,0,0,.049-1.575,46.636,46.636,0,0,0-3.43-3.606,1.184,1.184,0,0,0-1.6-.016c-.627-.558-1.267-1.1-1.925-1.621a1.184,1.184,0,0,0-.275-1.58,45.805,45.805,0,0,0-4.124-2.79,1.194,1.194,0,0,0-1.6.352c-.722-.4-1.454-.792-2.2-1.156a1.192,1.192,0,0,0-.608-1.522,45.656,45.656,0,0,0-4.629-1.832,1.192,1.192,0,0,0-1.491.709c-.788-.238-1.586-.447-2.39-.642a1.192,1.192,0,0,0-.919-1.385,46.27,46.27,0,0,0-4.912-.79,1.184,1.184,0,0,0-1.309,1.035c-.816-.064-1.64-.1-2.466-.12A1.2,1.2,0,0,0,67,25.876a46,46,0,0,0-4.969.272,1.194,1.194,0,0,0-1.058,1.311c-.817.113-1.628.244-2.431.4a1.189,1.189,0,0,0-1.423-.9,45.544,45.544,0,0,0-4.795,1.339,1.192,1.192,0,0,0-.749,1.5c-.772.285-1.533.6-2.285.922a1.194,1.194,0,0,0-1.585-.575,46.113,46.113,0,0,0-4.391,2.341,1.193,1.193,0,0,0-.4,1.64q-1.039.666-2.039,1.385a1.192,1.192,0,0,0-1.671-.224,46.308,46.308,0,0,0-3.788,3.226,1.192,1.192,0,0,0-.056,1.67c-.584.582-1.149,1.183-1.7,1.8A1.192,1.192,0,0,0,32,42.128a46.536,46.536,0,0,0-3.01,3.963,1.19,1.19,0,0,0,.295,1.636q-.671,1.041-1.286,2.119a1.193,1.193,0,0,0-1.575.512,46.3,46.3,0,0,0-2.087,4.52,1.192,1.192,0,0,0,.6,1.514q-.433,1.165-.8,2.357a1.191,1.191,0,0,0-1.376.85,46.2,46.2,0,0,0-1.058,4.862,1.188,1.188,0,0,0,.873,1.338q-.171,1.232-.273,2.485a1.19,1.19,0,0,0-1.13,1.122,46.773,46.773,0,0,0,0,4.975,1.193,1.193,0,0,0,1.109,1.125q.1,1.257.261,2.494a1.191,1.191,0,0,0-.834,1.331,46.27,46.27,0,0,0,1.069,4.861,1.193,1.193,0,0,0,1.085.873,1.205,1.205,0,0,0,.2-.022c.246.811.508,1.616.8,2.407a1.194,1.194,0,0,0-.485,1.46,46.148,46.148,0,0,0,2.1,4.512,1.157,1.157,0,0,0,1.41.569q.628,1.119,1.318,2.2a1.177,1.177,0,0,0-.158,1.5,46.269,46.269,0,0,0,3.014,3.959,1.138,1.138,0,0,0,1.464.261c.574.646,1.16,1.28,1.77,1.891a1.179,1.179,0,0,0,.188,1.462,46.6,46.6,0,0,0,3.791,3.224,1.191,1.191,0,0,0,1.479-.028q1.036.754,2.118,1.447a1.2,1.2,0,0,0,.521,1.379,46.1,46.1,0,0,0,4.4,2.334,1.174,1.174,0,0,0,1.41-.318c.793.346,1.593.676,2.409.978a1.191,1.191,0,0,0,.807,1.184,45.886,45.886,0,0,0,4.8,1.327,1.053,1.053,0,0,0,.191.026,1.186,1.186,0,0,0,1.095-.612c.853.167,1.716.306,2.585.424a1.192,1.192,0,0,0,1.04.963q1.208.13,2.435.2c.841.048,1.693.071,2.532.072a1.191,1.191,0,0,0,1.136-.837c.88-.02,1.756-.059,2.624-.13a1.186,1.186,0,0,0,1.015.71,1.246,1.246,0,0,0,.194-.005,45.725,45.725,0,0,0,4.913-.8,1.189,1.189,0,0,0,.928-1.052c.853-.209,1.7-.437,2.533-.694a1.194,1.194,0,0,0,.89.48,1.217,1.217,0,0,0,.447-.06,46.364,46.364,0,0,0,4.624-1.843,1.19,1.19,0,0,0,.681-1.212c.789-.389,1.563-.808,2.326-1.242a1.174,1.174,0,0,0,1.389.122,47.013,47.013,0,0,0,4.118-2.792,1.184,1.184,0,0,0,.395-1.332q1.034-.829,2.018-1.716a1.151,1.151,0,0,0,1.383-.172,46.483,46.483,0,0,0,3.427-3.608,1.182,1.182,0,0,0,.085-1.4c.548-.681,1.083-1.374,1.591-2.089a1.219,1.219,0,0,0,.289.055,1.191,1.191,0,0,0,1.054-.52,46.485,46.485,0,0,0,2.574-4.261,1.192,1.192,0,0,0-.239-1.428q.572-1.159,1.077-2.358c.028,0,.055.017.083.019a1.2,1.2,0,0,0,1.175-.75,45.567,45.567,0,0,0,1.592-4.717,1.194,1.194,0,0,0-2.3-.639,43.235,43.235,0,0,1-1.508,4.471,1.192,1.192,0,0,0,.417,1.411c-.328.771-.672,1.532-1.041,2.278a1.193,1.193,0,0,0-1.362.59,44.087,44.087,0,0,1-2.442,4.041,1.179,1.179,0,0,0,.149,1.486c-.491.689-1.006,1.358-1.534,2.015a1.178,1.178,0,0,0-1.478.25,43.871,43.871,0,0,1-3.25,3.422,1.178,1.178,0,0,0-.162,1.5q-.938.847-1.923,1.636a1.178,1.178,0,0,0-1.512-.088,44.161,44.161,0,0,1-3.908,2.649,1.193,1.193,0,0,0-.5,1.45c-.719.407-1.445.8-2.188,1.17a1.191,1.191,0,0,0-1.482-.408,43.617,43.617,0,0,1-4.383,1.746,1.192,1.192,0,0,0-.8,1.308c-.789.242-1.59.457-2.4.655a1.19,1.19,0,0,0-1.354-.7,43.587,43.587,0,0,1-4.657.757,1.193,1.193,0,0,0-1.061,1.095c-.821.065-1.648.1-2.479.124a1.17,1.17,0,0,0-1.171-.971,45.154,45.154,0,0,1-4.714-.257,1.2,1.2,0,0,0-1.267.83c-.824-.113-1.641-.244-2.451-.4a1.2,1.2,0,0,0-.938-1.187,42.875,42.875,0,0,1-4.546-1.258,1.194,1.194,0,0,0-1.406.521c-.783-.29-1.552-.606-2.314-.939a1.191,1.191,0,0,0-.665-1.328,43.812,43.812,0,0,1-4.168-2.213,1.194,1.194,0,0,0-1.45.172q-1.067-.687-2.093-1.43a1.178,1.178,0,0,0-.361-1.394,43.982,43.982,0,0,1-3.6-3.059,1.178,1.178,0,0,0-1.423-.141c-.6-.6-1.181-1.23-1.748-1.867a1.18,1.18,0,0,0-.074-1.417A44.257,44.257,0,0,1,31,96.34a1.178,1.178,0,0,0-1.322-.457q-.689-1.076-1.317-2.192a1.189,1.189,0,0,0,.2-1.389,44,44,0,0,1-1.984-4.279,1.191,1.191,0,0,0-1.179-.744c-.293-.8-.556-1.611-.8-2.43a1.19,1.19,0,0,0,.472-1.3,43.518,43.518,0,0,1-1.014-4.607,1.2,1.2,0,0,0-.941-.974q-.171-1.273-.267-2.568a1.192,1.192,0,0,0,.7-1.149,44.41,44.41,0,0,1,0-4.718,1.182,1.182,0,0,0-.683-1.124c.071-.878.165-1.749.286-2.612a1.183,1.183,0,0,0,.9-.956,43.572,43.572,0,0,1,1-4.611,1.191,1.191,0,0,0-.394-1.238q.39-1.265.854-2.5a1.184,1.184,0,0,0,1.041-.738,43.269,43.269,0,0,1,1.979-4.284,1.191,1.191,0,0,0-.087-1.248q.661-1.166,1.389-2.288c.025,0,.049.013.074.014a1.193,1.193,0,0,0,1.055-.523,44.12,44.12,0,0,1,2.856-3.757A1.182,1.182,0,0,0,34,42.47q.906-1.013,1.869-1.972a1.206,1.206,0,0,0,.3.074,1.187,1.187,0,0,0,.888-.325,43.876,43.876,0,0,1,3.594-3.061,1.18,1.18,0,0,0,.44-1.117q1.1-.8,2.247-1.527a1.2,1.2,0,0,0,.53.159,1.182,1.182,0,0,0,.683-.171,43.674,43.674,0,0,1,4.163-2.219,1.186,1.186,0,0,0,.682-1c.826-.361,1.66-.7,2.511-1.015a1.16,1.16,0,0,0,1.186.261,43.57,43.57,0,0,1,4.544-1.269,1.186,1.186,0,0,0,.883-.835c.884-.174,1.779-.317,2.681-.437a1.18,1.18,0,0,0,.892.513,1.409,1.409,0,0,0,.2-.005A43.813,43.813,0,0,1,67,28.264a1.19,1.19,0,0,0,1.051-.636c.9.019,1.8.057,2.683.129a1.19,1.19,0,0,0,.982.754,43.985,43.985,0,0,1,4.658.749,1.22,1.22,0,0,0,.189.025,1.185,1.185,0,0,0,.972-.44c.872.209,1.737.437,2.589.7a1.192,1.192,0,0,0,.8.968,43.7,43.7,0,0,1,4.389,1.737,1.162,1.162,0,0,0,.431.109,1.189,1.189,0,0,0,.819-.281q1.2.582,2.351,1.234a1.194,1.194,0,0,0,.57,1.144,43.759,43.759,0,0,1,3.908,2.643,1.171,1.171,0,0,0,1.3.085q1.026.812,2,1.686a1.2,1.2,0,0,0,.3,1.281,43.712,43.712,0,0,1,3.252,3.42,1.193,1.193,0,0,0,1.289.356c.545.668,1.076,1.348,1.583,2.049a1.189,1.189,0,0,0-.005,1.344,43.938,43.938,0,0,1,2.444,4.035,1.194,1.194,0,0,0,.989.63,1.163,1.163,0,0,0,.216-.017c.387.765.755,1.541,1.1,2.332a1.192,1.192,0,0,0-.309,1.328,43.448,43.448,0,0,1,1.518,4.468,1.192,1.192,0,0,0,1.076.868c.024.093.052.185.076.278l.564-.141c-.02-.083-.046-.165-.068-.248a1.191,1.191,0,0,0,.652-1.4,45.781,45.781,0,0,0-1.6-4.714,1.189,1.189,0,0,0-1.39-.709c-.336-.771-.7-1.527-1.07-2.272a1.193,1.193,0,0,0,.356-1.528" transform="translate(-3.19 -3.914)" fill="#303a52"/>
    <path id="Tracé_29215" data-name="Tracé 29215" d="M105.967,64.216l.023.1,2.242,1.779H119.2v-.562H108.429l-1.936-1.535A40.938,40.938,0,0,0,68.415,32.655l-.291-.011,0,7.542q-.773-.036-1.556-.036a32.979,32.979,0,0,0-7.608.892V33.184l-.334.067A40.656,40.656,0,0,0,26.181,69.576l-.011.123,2.3,2.5h9.52v-.558H28.712L26.747,69.5A40.1,40.1,0,0,1,58.405,33.865v7.313q-.549.14-1.091.3V35.507l-.348.089a38.487,38.487,0,0,0-28.582,31.65l-.02.126,2.281,2.652h7.34v-.558H30.9L28.955,67.2a37.93,37.93,0,0,1,27.8-30.975v5.418q-.549.172-1.09.361v-4.05l-.364.118A36.82,36.82,0,0,0,30.775,64.9l-.03.131L33,67.849h4.986v-.558H33.267l-1.918-2.4a36.267,36.267,0,0,1,23.76-26.166v1.444A34.912,34.912,0,0,0,33.4,62.526l-.042.135,2.208,3.018h2.418V65.12H35.852L33.977,62.56a34.345,34.345,0,0,1,21.132-21.8V42.21A32.82,32.82,0,0,0,36.331,60.136l-.059.138,1.714,2.595V61.856L36.9,60.217A32.266,32.266,0,0,1,55.109,42.8v1.482A31.027,31.027,0,0,0,39.667,57.724l-.08.14L41.6,61.325h2.053v-.558H41.923l-1.692-2.906A30.463,30.463,0,0,1,55.108,44.885v1.086h-.02a.391.391,0,0,0-.39.391v2.4a.39.39,0,0,0,.39.39h.53a.39.39,0,0,0,.39-.39v-2.4a.385.385,0,0,0-.343-.381V44.662c.362-.139.725-.273,1.091-.4v5.323a.39.39,0,0,0-.379.389v2.4a.39.39,0,0,0,.39.39h.53a.389.389,0,0,0,.39-.39v-2.4a.388.388,0,0,0-.373-.387V44.082c.362-.115.725-.226,1.091-.328v2.226a.387.387,0,0,0-.349.383v2.4a.39.39,0,0,0,.39.39h.53a.39.39,0,0,0,.391-.39v-2.4a.391.391,0,0,0-.391-.391h-.012V43.6a30.209,30.209,0,0,1,7.608-.977,30.785,30.785,0,0,1,3.722.225l.059.042v-.035q.574.07,1.142.162l.334.056A30.248,30.248,0,0,1,95.737,64.458l.337,1.26A30.966,30.966,0,0,1,96.8,69.9l.553-.057a30.81,30.81,0,0,0-25.337-27.3V41.158a32.131,32.131,0,0,1,26.83,30.489H96.074v.558h3.347l-.008-.289a32.687,32.687,0,0,0-27.4-31.323V39.4a34.29,34.29,0,0,1,29.1,31.056l.008.109,2.3,2.1h16.315v-.562h-16.1L101.662,70.3a34.855,34.855,0,0,0-29.647-31.47v-1.4a36.5,36.5,0,0,1,30.8,30.949l.014.1,2.284,1.988,14.536,0v-.563l-14.326,0L103.362,68.2A37.061,37.061,0,0,0,71.771,36.83l-.318-.043V40.5c-.364-.053-.731-.1-1.1-.141V35.216a38.471,38.471,0,0,1,34.086,31.091l.019.1,2.265,1.88,12.751,0v-.563l-12.549,0-1.952-1.62A39.033,39.033,0,0,0,70.1,34.628L69.79,34.6v5.7c-.364-.036-.731-.063-1.1-.086l-.005-6.988a40.372,40.372,0,0,1,37.282,30.986M56.756,43.677q-.549.185-1.09.388V42.6q.541-.194,1.09-.368Zm1.649-.505c-.366.1-.729.21-1.091.323V42.057c.362-.108.725-.21,1.091-.306Zm11.948-2.247q.554.062,1.1.143V42.45q-.546-.085-1.1-.154Zm-.563-.062v1.372a31.5,31.5,0,0,0-3.218-.166,30.77,30.77,0,0,0-7.608.959V41.616a32.379,32.379,0,0,1,7.608-.908q1.631,0,3.218.155" transform="translate(-3.958 -4.938)" fill="#303a52"/>
    <path id="Tracé_29216" data-name="Tracé 29216" d="M101.121,83.251l-.008.11a34.291,34.291,0,0,1-29.1,31.056v-1.658a32.69,32.69,0,0,0,27.4-31.325l.009-.288H96.074v.558h2.77a32.131,32.131,0,0,1-26.83,30.489v-1.385a30.814,30.814,0,0,0,25.337-27.3L96.8,83.45a30.257,30.257,0,0,1-24.782,26.791v-3.785a.39.39,0,0,0,.369-.386v-2.4a.39.39,0,0,0-.39-.39h-.53a.39.39,0,0,0-.39.39v2.4a.388.388,0,0,0,.379.388v3.88c-.365.059-.731.11-1.1.155V102.84a.388.388,0,0,0,.352-.383v-2.4a.391.391,0,0,0-.391-.391h-.529a.39.39,0,0,0-.391.391v2.4a.39.39,0,0,0,.391.39h.005v7.709q-.549.057-1.1.1l0-4.2a.387.387,0,0,0,.335-.379v-2.4a.391.391,0,0,0-.391-.39h-.529a.391.391,0,0,0-.391.39v2.4a.391.391,0,0,0,.391.39h.022v4.225c-.516.025-1.035.04-1.556.04a30.3,30.3,0,0,1-10.907-2.036l-.558-.222A30.476,30.476,0,0,1,40.23,95.494l1.69-2.909h2.765l-.575-.54-.02-.018H41.6l-2.012,3.465.079.139a31.033,31.033,0,0,0,15.441,13.436v1.482A32.266,32.266,0,0,1,36.9,93.137l1.8-2.727h3.659l-.6-.558H38.4L36.272,93.08l.059.137a32.816,32.816,0,0,0,18.776,17.924v1.45a34.348,34.348,0,0,1-21.13-21.8l1.875-2.562h4.185l-.6-.558H35.568L33.36,90.692l.042.134a34.913,34.913,0,0,0,21.7,22.358v1.443A36.269,36.269,0,0,1,31.348,88.462l1.918-2.4h4.719V85.5H33l-2.254,2.821.03.131A36.824,36.824,0,0,0,55.3,115.277l.364.118v-4.049q.542.19,1.091.361v5.418a37.933,37.933,0,0,1-27.8-30.975L30.9,83.885h7.084v-.557H30.646l-2.282,2.652.019.126a38.488,38.488,0,0,0,28.584,31.649l.347.09v-5.971c.362.106.726.207,1.091.3v7.312A40.115,40.115,0,0,1,26.747,83.856l1.965-2.141,9.273,0v-.557l-9.519,0-2.3,2.5.011.121A40.673,40.673,0,0,0,58.63,120.1l.334.066V112.31a32.927,32.927,0,0,0,7.608.892q.782,0,1.554-.036l0,8.006.292-.012a40.933,40.933,0,0,0,38.077-31.336l1.936-1.535H119.2v-.563H108.233L105.989,89.5l-.021.094a40.373,40.373,0,0,1-37.284,30.987l0-7.452c.37-.022.737-.05,1.1-.086v6.166l.306-.025a39.034,39.034,0,0,0,34.876-31.475l1.953-1.62h12.549v-.563l-12.751,0-2.265,1.879-.02.1A38.471,38.471,0,0,1,70.353,118.6v-5.612c.369-.042.735-.087,1.1-.141v4.182l.319-.043a37.062,37.062,0,0,0,31.589-31.369l1.967-1.714,14.326,0v-.563l-14.536,0-2.283,1.989-.015.1a36.5,36.5,0,0,1-30.8,30.949v-1.4a34.854,34.854,0,0,0,29.647-31.47l1.975-1.808h16.1v-.564H103.419ZM56.756,111.12q-.549-.174-1.091-.368v-1.463c.362.136.726.263,1.091.387Zm11.37,1.489c-.514.023-1.033.036-1.554.036a32.379,32.379,0,0,1-9.258-1.35v-1.439a30.827,30.827,0,0,0,9.258,1.427q.782,0,1.555-.038Zm1.664-.12c-.366.036-.732.063-1.1.087l0-1.363c.368-.025.735-.057,1.1-.094Zm1.663-.205c-.365.054-.731.1-1.1.144v-1.371c.369-.045.735-.1,1.1-.154Z" transform="translate(-3.958 -12.274)" fill="#303a52"/>
    <path id="Tracé_29217" data-name="Tracé 29217" d="M115.177,61.528a42.911,42.911,0,0,0-41.2-31.185V30.9a42.347,42.347,0,0,1,40.685,30.865l.025.09,2.219,1.69h9.158v-.562H117.1Z" transform="translate(-11.189 -4.59)" fill="#303a52"/>
    <path id="Tracé_29218" data-name="Tracé 29218" d="M114.686,93.171l-.025.09a42.348,42.348,0,0,1-40.685,30.865v.562a42.912,42.912,0,0,0,41.2-31.185l1.919-1.459h8.968v-.564H116.9Z" transform="translate(-11.189 -13.837)" fill="#303a52"/>
    <path id="Tracé_29219" data-name="Tracé 29219" d="M46.586,68.342H45.549l.606.558h.431Z" transform="translate(-6.89 -10.337)" fill="#303a52"/>
    <path id="Tracé_29220" data-name="Tracé 29220" d="M80.978,83.385c3.565,0,6.2-2.453,6.2-5.788s-2.631-5.8-6.2-5.8-6.187,2.453-6.187,5.8,2.623,5.788,6.187,5.788m0-8.971a3.188,3.188,0,1,1-3,3.183,2.985,2.985,0,0,1,3-3.183" transform="translate(-11.313 -10.86)" fill="#303a52"/>
    <path id="Tracé_29221" data-name="Tracé 29221" d="M99.57,83.2h2.593V72.066H99.076V78l-4.917-5.934H91.566V83.2h3.087V77.268Z" transform="translate(-13.85 -10.9)" fill="#303a52"/>
    <path id="Tracé_29222" data-name="Tracé 29222" d="M52.5,93.543V83.685l-2.835-2.654v9.858Z" transform="translate(-7.512 -12.256)" fill="#303a52"/>
    <path id="Tracé_29223" data-name="Tracé 29223" d="M65.2,90.889V81.031l-2.835,2.654v9.858Z" transform="translate(-9.433 -12.256)" fill="#303a52"/>
    <path id="Tracé_29224" data-name="Tracé 29224" d="M42.984,68.153V83.569l2.834,2.655V74.353l9.642,8.879L65.1,74.353V86.224l2.835-2.655V67.735L55.459,79.224,42.984,67.735Z" transform="translate(-6.502 -10.245)" fill="#303a52"/>
    <path id="Tracé_29225" data-name="Tracé 29225" d="M63.276,71.2V67.188l-6.807,6.268-6.807-6.268V71.2l6.807,6.268Z" transform="translate(-7.512 -10.163)" fill="#303a52"/>
  </g>
</svg>
